<?xml version="1.0" encoding="UTF-8"?>
<svg version="1.1" xmlns="http://www.w3.org/2000/svg" width="1080" height="1080">
<path d="M0 0 C356.4 0 712.8 0 1080 0 C1080 356.4 1080 712.8 1080 1080 C723.6 1080 367.2 1080 0 1080 C0 723.6 0 367.2 0 0 Z " fill="#B1DCEA" transform="translate(0,0)"/>
<path d="M0 0 C340.50943396 0 340.50943396 0 390 43 C390.85464844 43.72058594 391.70929688 44.44117188 392.58984375 45.18359375 C407.81962492 58.34831985 418.83859866 75.73432121 427 94 C427.32492432 94.71704102 427.64984863 95.43408203 427.98461914 96.17285156 C430.89329225 102.96607411 432.61453538 109.9356927 434.23754883 117.13232422 C434.68881669 119.13083116 435.15300152 121.12600862 435.61914062 123.12109375 C437.82755877 132.73761913 439.1564569 141.73637187 439.1328125 151.58203125 C439.13424759 152.9242701 439.13424759 152.9242701 439.13571167 154.29362488 C439.13638855 156.17695181 439.13456881 158.06028114 439.13037109 159.94360352 C439.12503494 162.79383718 439.13032314 165.64391192 439.13671875 168.49414062 C439.15210971 201.5633332 431.53764835 234.63018699 409 260 C408.57380371 260.49564453 408.14760742 260.99128906 407.70849609 261.50195312 C388.05690308 284.32136907 361.83524832 298.61893256 334.01367188 309.22998047 C331.6654269 310.12793933 329.33062762 311.05732745 327 312 C326.67 314.97 326.34 317.94 326 321 C327.19625 321.309375 328.3925 321.61875 329.625 321.9375 C340.99061225 325.74390787 351.131544 334.19459374 360 342 C360.91458984 342.78890625 360.91458984 342.78890625 361.84765625 343.59375 C395.40147842 374.68854502 407.22611084 429.19648357 421.04394531 470.86755371 C422.48444048 475.20807015 423.92940889 479.54709117 425.37454414 483.88606453 C427.12918117 489.15518872 428.88104243 494.42523463 430.6328125 499.6953125 C430.95485783 500.6633292 431.27690315 501.6313459 431.60870743 502.62869644 C432.54419683 505.44223306 433.47805279 508.25630241 434.41064453 511.07080078 C434.85776637 512.42014804 434.85776637 512.42014804 435.31392097 513.79675484 C436.86519221 518.4976988 438.38774072 523.20622363 439.8739624 527.92816162 C440.18208296 528.90638823 440.49020351 529.88461483 440.80766106 530.89248466 C441.38704997 532.73859438 441.96301297 534.58578479 442.53463936 536.43431282 C444.16614339 541.64051048 446.02470517 546.69153312 448.0882206 551.74182701 C449.22768369 554.56389644 450.22918798 557.41951541 451.19824219 560.30419922 C451.57833435 561.431716 451.95842651 562.55923279 452.35003662 563.72091675 C452.74499329 564.9035611 453.13994995 566.08620544 453.546875 567.3046875 C453.96294006 568.54622589 454.37900513 569.78776428 454.80767822 571.06692505 C455.68037688 573.67314751 456.55065454 576.28016381 457.41943359 578.88769531 C458.53187403 582.22522147 459.65260608 585.55990021 460.77537155 588.89396477 C461.85042634 592.09157806 462.91687007 595.29204588 463.984375 598.4921875 C464.38742859 599.68697723 464.79048218 600.88176697 465.20574951 602.11276245 C465.57323303 603.22136627 465.94071655 604.32997009 466.31933594 605.47216797 C466.64480408 606.44572235 466.97027222 607.41927673 467.30560303 608.42233276 C468 611 468 611 468 615 C426.75 615 385.5 615 343 615 C339.23119934 603.69359803 335.5646796 592.63540972 332.2734375 581.234375 C329.96137449 573.40047528 327.19094096 565.70977178 324.5 558 C321.07658291 548.19162259 317.7637573 538.39687067 314.90063477 528.40917969 C312.41650028 519.83359328 309.44133882 511.42718268 306.5 503 C303.10244066 493.26570722 299.80089349 483.54377753 296.95062256 473.63398743 C294.41799811 464.88378379 291.57286799 456.23640947 288.70849609 447.59008789 C288.07180008 445.6619985 287.43992486 443.7323102 286.81298828 441.80102539 C277.91853753 414.40397833 267.26272385 384.12092921 240.4140625 369.6015625 C204.93267258 352.43314802 157.31196285 359.43595016 122 359 C122 443.48 122 527.96 122 615 C81.74 615 41.48 615 0 615 C0 412.05 0 209.1 0 0 Z " fill="#000000" transform="translate(585,395)"/>
<path d="M0 0 C0.89936783 -0.00418945 1.79873566 -0.00837891 2.72535706 -0.01269531 C5.6463761 -0.02248817 8.56724846 -0.02248149 11.48828125 -0.01953125 C12.48363892 -0.01925934 13.47899658 -0.01898743 14.5045166 -0.01870728 C30.03138607 0.00085547 45.35576082 0.46238367 60.80078125 2.16796875 C61.78240234 2.26980469 62.76402344 2.37164062 63.77539062 2.4765625 C86.57354407 4.87325352 109.05208852 8.82580838 130.80078125 16.16796875 C131.66590332 16.45510742 132.53102539 16.74224609 133.42236328 17.03808594 C172.43277563 30.11459669 203.12975946 51.09249681 231.80078125 80.16796875 C227.92706482 86.05581168 223.94351513 91.84153125 219.80078125 97.54296875 C219.24390625 98.31189453 218.68703125 99.08082031 218.11328125 99.87304688 C213.45459889 106.29433338 208.74777725 112.6797551 204.03320312 119.06005859 C200.08774204 124.40478204 196.18172944 129.77625243 192.30078125 135.16796875 C185.54241401 144.55632657 178.69476381 153.87876005 171.80078125 163.16796875 C171.29675781 163.89121338 170.79273438 164.61445801 170.2734375 165.35961914 C168.80078125 167.16796875 168.80078125 167.16796875 166.33984375 168.015625 C162.24450684 168.31756003 158.68045951 168.48051735 155.17919922 166.03564453 C151.66511345 162.90522534 148.58689677 159.35503675 145.42871094 155.87353516 C128.15081693 137.7716504 102.20902129 126.48904558 78.80078125 119.16796875 C78.0236377 118.9241748 77.24649414 118.68038086 76.44580078 118.42919922 C55.6259964 112.06156936 34.93177123 110.89614075 13.30078125 110.85546875 C12.35751984 110.85179291 11.41425842 110.84811707 10.44241333 110.84432983 C-7.03694368 110.80879844 -23.32578083 112.40743768 -40.19921875 117.16796875 C-41.23691406 117.45414062 -42.27460938 117.7403125 -43.34375 118.03515625 C-60.81744496 123.32170921 -76.50849559 133.41724188 -85.8359375 149.43359375 C-93.97669068 165.761752 -95.12726171 186.06552414 -89.45922852 203.43115234 C-82.52418442 222.69333712 -69.01555215 233.54047543 -51.01171875 242.29296875 C-25.60996101 253.4854297 2.10306911 258.40249582 29.23535156 263.49023438 C37.28482721 265.02031822 45.29801802 266.72108374 53.31103516 268.43017578 C55.87201388 268.97161119 58.43383767 269.50654767 60.99755859 270.03466797 C104.87548375 279.07680573 149.89019928 290.59041471 186.80078125 317.16796875 C187.40390137 317.59899902 188.00702148 318.0300293 188.62841797 318.47412109 C225.243797 345.00108096 246.53776189 384.63386735 253.90087891 428.76635742 C255.67283173 440.09852007 255.98717368 451.33426655 255.98608398 462.78149414 C255.98826208 465.33301705 256.00645459 467.88410047 256.02539062 470.43554688 C256.06147768 480.85852338 255.37510801 490.86009825 253.80078125 501.16796875 C253.59763306 502.61272583 253.59763306 502.61272583 253.39038086 504.08666992 C248.24958564 539.55517385 233.45484313 573.03169874 208.80078125 599.16796875 C207.77273972 600.39111306 206.75124855 601.61981158 205.73828125 602.85546875 C196.2712018 613.91754528 183.18570619 622.69402206 170.80078125 630.16796875 C170.08817139 630.61358154 169.37556152 631.05919434 168.64135742 631.51831055 C108.78625914 668.43656059 31.52623697 669.32708922 -36.19921875 662.16796875 C-37.65400635 662.02367432 -37.65400635 662.02367432 -39.13818359 661.87646484 C-64.26006823 659.28169325 -90.67514076 652.22664514 -114.19921875 643.16796875 C-115.59358154 642.63333008 -115.59358154 642.63333008 -117.01611328 642.08789062 C-142.5080812 632.17458052 -167.06634262 619.72158298 -188.19921875 602.16796875 C-189.13121094 601.41902344 -190.06320313 600.67007813 -191.0234375 599.8984375 C-207.69051296 586.33403846 -229.30792755 567.79108545 -237.19921875 547.16796875 C-236.71843356 543.86054238 -235.48840602 541.97407623 -233.35546875 539.4453125 C-232.48184692 538.39851318 -232.48184692 538.39851318 -231.59057617 537.33056641 C-230.65435425 536.22914307 -230.65435425 536.22914307 -229.69921875 535.10546875 C-228.41393568 533.57041868 -227.12877935 532.03526248 -225.84375 530.5 C-225.21678223 529.75572754 -224.58981445 529.01145508 -223.94384766 528.24462891 C-221.73345127 525.61355814 -219.55726878 522.95700085 -217.38671875 520.29296875 C-216.68933594 519.43960938 -215.99195313 518.58625 -215.2734375 517.70703125 C-214.58894531 516.86914062 -213.90445313 516.03125 -213.19921875 515.16796875 C-211.69936179 513.33451839 -210.19935935 511.50118704 -208.69921875 509.66796875 C-207.95671875 508.76046875 -207.21421875 507.85296875 -206.44921875 506.91796875 C-181.69921875 476.66796875 -181.69921875 476.66796875 -179.4375 473.9609375 C-177.13986003 471.16623153 -177.13986003 471.16623153 -175.0546875 468.03125 C-172.2386016 464.06843362 -169.89340705 460.95191805 -165.421875 458.8828125 C-161.58030917 458.28209458 -159.75231965 458.52002747 -156.19921875 460.16796875 C-151.59499541 464.48366618 -148.18867733 469.87236768 -144.66845703 475.06982422 C-141.5936472 479.46080389 -137.84702138 483.25720068 -134.19921875 487.16796875 C-132.67762055 488.8964624 -131.1567955 490.62563695 -129.63671875 492.35546875 C-125.74134498 496.66581361 -121.70490956 500.50615314 -117.19921875 504.16796875 C-116.18085938 505.00070312 -115.1625 505.8334375 -114.11328125 506.69140625 C-89.15880404 526.8368918 -62.31847898 540.31702615 -31.19921875 548.16796875 C-30.54324707 548.33893066 -29.88727539 548.50989258 -29.21142578 548.68603516 C8.03148714 558.27738568 57.38494192 558.1482869 91.32421875 538.43359375 C108.01638832 528.0230244 118.66087461 511.30658785 123.4921875 492.47265625 C127.74241896 471.13233323 125.11557057 447.8299251 113.3125 429.3671875 C101.60384095 412.33366025 81.82495249 403.54780015 62.80078125 397.16796875 C62.02428223 396.90161621 61.2477832 396.63526367 60.44775391 396.36083984 C43.74720048 390.70159283 26.6341938 387.19345022 9.40925598 383.57893372 C1.89982036 381.99474049 -5.55637395 380.21566869 -13.0090332 378.38427734 C-19.24075311 376.85963153 -25.48704336 375.4295153 -31.75331116 374.05352783 C-47.09584121 370.6819766 -62.19572474 366.84493165 -77.19921875 362.16796875 C-77.97942383 361.93287598 -78.75962891 361.6977832 -79.56347656 361.45556641 C-127.13279409 347.11832775 -172.27919728 319.15634672 -197.19921875 275.16796875 C-197.52631836 274.59304688 -197.85341797 274.018125 -198.19042969 273.42578125 C-207.54478894 256.70657524 -213.44780659 238.08572366 -216.19921875 219.16796875 C-216.37622314 217.96849609 -216.55322754 216.76902344 -216.7355957 215.53320312 C-218.07577302 205.70735637 -218.56298607 196.07955865 -218.51171875 186.16796875 C-218.50848602 185.03243561 -218.50848602 185.03243561 -218.50518799 183.8739624 C-218.37791915 155.81964383 -213.60013896 130.4472267 -201.19921875 105.16796875 C-200.88758789 104.51634766 -200.57595703 103.86472656 -200.25488281 103.19335938 C-192.78047072 87.67505617 -182.15573224 74.47459976 -170.19921875 62.16796875 C-169.67295898 61.61761963 -169.14669922 61.06727051 -168.60449219 60.50024414 C-164.3813616 56.15913897 -159.90428535 52.37795594 -155.07421875 48.73046875 C-154.3255957 48.16408691 -153.57697266 47.59770508 -152.80566406 47.01416016 C-146.50684573 42.30417233 -140.07278365 37.99954057 -133.19921875 34.16796875 C-132.45220703 33.74805664 -131.70519531 33.32814453 -130.93554688 32.89550781 C-118.10804842 25.75165591 -105.09847111 19.89794783 -91.19921875 15.16796875 C-90.49974121 14.92884766 -89.80026367 14.68972656 -89.07958984 14.44335938 C-66.08989369 6.76323555 -41.7845286 2.60382823 -17.625 1.4140625 C-14.39096571 1.27321415 -14.39096571 1.27321415 -12.06005859 0.66308594 C-8.03440374 -0.03362238 -4.07842543 0.00577051 0 0 Z " fill="#000000" transform="translate(283.19921875,61.83203125)"/>
<path d="M0 0 C20.50125 -0.04125 41.0025 -0.0825 62.125 -0.125 C68.57562988 -0.14320801 75.02625977 -0.16141602 81.67236328 -0.18017578 C89.60717773 -0.18920898 89.60717773 -0.18920898 93.33297729 -0.19088745 C96.58342991 -0.19473603 99.83377108 -0.2059714 103.0841943 -0.21963322 C106.33753889 -0.23043635 109.59087894 -0.2276779 112.84423828 -0.22705078 C114.53929851 -0.23784511 114.53929851 -0.23784511 116.26860237 -0.2488575 C138.00116941 -0.19327782 158.09312405 5.09654113 175 19 C175.86625 19.598125 176.7325 20.19625 177.625 20.8125 C190.48291891 32.65532005 197.41779477 52.30007482 198.14526367 69.41821289 C198.16567373 72.61337515 198.1856828 75.80842479 198.18530273 79.00366211 C198.18746879 81.03326051 198.20560979 83.06229572 198.22460938 85.09179688 C198.3245241 107.38906641 193.29053244 127.40204718 177.9375 144.16015625 C156.67093292 164.35481975 128.47003701 165.32341194 100.96055603 165.21115112 C97.14452528 165.19599511 93.32863106 165.1909285 89.51257324 165.18920898 C80.36252973 165.1787864 71.21251289 165.15086398 62.0625 165.125 C31.3415625 165.063125 31.3415625 165.063125 0 165 C0 110.55 0 56.1 0 0 Z " fill="#A2CAF4" transform="translate(707,492)"/>
</svg>
