<?xml version="1.0" encoding="UTF-8"?>
<svg version="1.1" xmlns="http://www.w3.org/2000/svg" width="1080" height="1080">
<path d="M0 0 C356.4 0 712.8 0 1080 0 C1080 356.4 1080 712.8 1080 1080 C723.6 1080 367.2 1080 0 1080 C0 723.6 0 367.2 0 0 Z " fill="#B0DBEB" transform="translate(0,0)"/>
<path d="M0 0 C338.23527487 0 338.23527487 0 396 57 C407.42575629 68.541838 416.48253655 81.64092743 424 96 C424.33241699 96.63212402 424.66483398 97.26424805 425.00732422 97.91552734 C435.30901967 117.82359079 440.41218092 138.97762481 444 161 C444.18030762 162.07072754 444.36061523 163.14145508 444.54638672 164.24462891 C445.08983991 168.74376611 445.18032925 173.15612749 445.203125 177.68359375 C445.21009399 178.6081134 445.21706299 179.53263306 445.22424316 180.48516846 C445.24161944 183.46932529 445.24796759 186.45329461 445.25 189.4375 C445.25100708 190.45276764 445.25201416 191.46803528 445.25305176 192.5140686 C445.24294124 207.54350902 444.85666737 222.19807727 442 237 C441.83951172 237.83966309 441.67902344 238.67932617 441.51367188 239.54443359 C438.94783779 252.57736143 435.40065173 264.85190059 430 277 C429.68788574 277.70866211 429.37577148 278.41732422 429.05419922 279.14746094 C415.31093738 310.11064429 394.32625244 334.36751237 366 353 C364.90558594 353.73089844 363.81117188 354.46179688 362.68359375 355.21484375 C323.62970894 380.43021401 277.54750596 385.37659782 232.3013382 385.20256042 C228.79093609 385.19097361 225.28056307 385.1906237 221.7701416 385.18920898 C211.57591057 385.17881001 201.38170346 385.15088786 191.1875 385.125 C168.355625 385.08375 145.52375 385.0425 122 385 C122 460.9 122 536.8 122 615 C81.74 615 41.48 615 0 615 C0 412.05 0 209.1 0 0 Z " fill="#000000" transform="translate(598,427)"/>
<path d="M0 0 C1.49294586 0.00273422 1.49294586 0.00273422 3.01605225 0.00552368 C36.6992091 0.10859907 70.54867997 3.09456444 102.8125 13.3125 C103.63766113 13.56757324 104.46282227 13.82264648 105.31298828 14.08544922 C117.8926371 17.99511901 129.92637171 22.63821765 141.8125 28.3125 C142.5230957 28.64926758 143.23369141 28.98603516 143.96582031 29.33300781 C186.25491988 49.50106033 217.23707174 82.44491512 236.03515625 125.0859375 C236.8125 127.3125 236.8125 127.3125 236.8125 130.3125 C235.42089844 131.48486328 235.42089844 131.48486328 233.421875 132.6328125 C232.66455078 133.0764917 231.90722656 133.5201709 231.12695312 133.97729492 C230.28068359 134.4591626 229.43441406 134.94103027 228.5625 135.4375 C226.71283301 136.51831939 224.8639161 137.60042315 223.015625 138.68359375 C222.01337891 139.26737793 221.01113281 139.85116211 219.97851562 140.45263672 C214.97591372 143.3913953 210.02264832 146.41092237 205.06842041 149.4302063 C202.70371647 150.87090109 200.33714085 152.30850676 197.97061157 153.74620056 C196.15372652 154.85002951 194.33708621 155.95426022 192.52050781 157.05859375 C186.84926378 160.50604888 181.17689793 163.95165651 175.50415039 167.39663696 C173.74415203 168.46559175 171.98436958 169.53490126 170.22460938 170.60424805 C168.08065462 171.90641144 165.93444453 173.20487118 163.78564453 174.49902344 C161.84914403 175.68019651 159.92714404 176.88558705 158.02294922 178.11816406 C153.28115228 181.14287328 150.00088913 183.09308529 144.1875 182.6875 C142.65222656 182.60628906 142.65222656 182.60628906 141.0859375 182.5234375 C140.33570313 182.45382813 139.58546875 182.38421875 138.8125 182.3125 C138.42094727 181.58099731 138.42094727 181.58099731 138.02148438 180.8347168 C132.8416565 171.20645092 127.65538928 161.88198101 120.8125 153.3125 C120.4201416 152.80412598 120.0277832 152.29575195 119.62353516 151.77197266 C98.88232942 124.9876105 66.64051084 111.38092081 33.76171875 106.890625 C-12.39154856 101.26138479 -61.48688869 105.64334089 -99.28710938 135.18774414 C-127.54652615 158.12062139 -142.51033575 189.53678611 -151.1875 224.3125 C-151.37795898 225.07336914 -151.56841797 225.83423828 -151.76464844 226.61816406 C-153.18069409 232.47439626 -154.2217267 238.36726177 -155.1875 244.3125 C-155.37086914 245.37194824 -155.55423828 246.43139648 -155.74316406 247.52294922 C-159.24214221 268.57898271 -159.59078733 289.6863927 -159.62095642 310.98005295 C-159.6249289 313.14868627 -159.63378164 315.31725573 -159.64343262 317.48587036 C-159.71241769 336.95262758 -158.65818549 355.9751594 -156.1875 375.3125 C-156.08535187 376.1284967 -155.98320374 376.94449341 -155.87796021 377.78521729 C-151.47859971 412.32960459 -141.82030659 450.53775959 -118.1875 477.3125 C-117.10662109 478.57320312 -117.10662109 478.57320312 -116.00390625 479.859375 C-93.90913664 505.13242169 -61.79547992 519.97612929 -28.36730957 522.527771 C-21.80598067 522.81437259 -15.25215986 522.72746666 -8.6875 522.625 C-6.7734474 522.61345585 -4.85938326 522.60368657 -2.9453125 522.59570312 C10.59049482 522.50923873 23.80694261 522.10274807 37.0625 519.125 C38.04831055 518.90577881 39.03412109 518.68655762 40.04980469 518.46069336 C65.53498387 512.58092795 89.21288569 500.86119229 103.54589844 478.04833984 C121.78568639 447.56462643 120.9664159 414.84803227 121.8125 379.3125 C74.2925 379.3125 26.7725 379.3125 -22.1875 379.3125 C-22.1875 347.3025 -22.1875 315.2925 -22.1875 282.3125 C64.9325 282.3125 152.0525 282.3125 241.8125 282.3125 C241.8125 393.1925 241.8125 504.0725 241.8125 618.3125 C203.8625 618.3125 165.9125 618.3125 126.8125 618.3125 C126.8125 591.2525 126.8125 564.1925 126.8125 536.3125 C123.5125 535.9825 120.2125 535.6525 116.8125 535.3125 C116.72097656 535.99183594 116.62945312 536.67117188 116.53515625 537.37109375 C115.63908579 541.01834271 114.03719772 544.10330565 112.25 547.375 C111.89139893 548.0354834 111.53279785 548.6959668 111.16333008 549.37646484 C92.14778184 583.88138924 61.63176848 608.2916337 23.8125 619.3125 C-35.29997834 635.80080522 -105.92854869 627.75199264 -159.54785156 598.00292969 C-173.4420695 590.04945041 -185.81696244 580.7966109 -197.4765625 569.83203125 C-199.72436682 567.74293358 -202.01300438 565.76838175 -204.375 563.8125 C-208.39043159 560.32803457 -211.623032 556.32733524 -214.91796875 552.16796875 C-216.34512111 550.37236053 -217.80237911 548.59987671 -219.30078125 546.86328125 C-244.18777421 517.88153625 -258.38613623 481.4581989 -269.1875 445.3125 C-269.54835693 444.14485107 -269.54835693 444.14485107 -269.91650391 442.95361328 C-277.94916825 416.78115374 -280.92375343 388.50011815 -283.1875 361.3125 C-283.27523682 360.26478928 -283.36297363 359.21707855 -283.45336914 358.13761902 C-284.1167645 349.61554323 -284.34798699 341.15143413 -284.35546875 332.60546875 C-284.35870057 331.22805246 -284.36206589 329.85063648 -284.36555481 328.47322083 C-284.3714891 325.6016867 -284.37340094 322.73018239 -284.37280273 319.85864258 C-284.37272199 316.9725104 -284.37959069 314.08653871 -284.39331055 311.20043945 C-284.47779883 293.14674773 -284.05191764 275.29193287 -282.1875 257.3125 C-282.08723511 256.34437881 -281.98697021 255.37625763 -281.88366699 254.37879944 C-274.87481967 188.12689797 -249.89105126 122.86972135 -202.1875 75.3125 C-201.32253906 74.41273438 -200.45757812 73.51296875 -199.56640625 72.5859375 C-192.30231992 65.06864809 -184.58879059 58.5231962 -176.1875 52.3125 C-175.18460937 51.56484375 -174.18171875 50.8171875 -173.1484375 50.046875 C-146.9694465 31.2412949 -117.14586902 18.7765037 -86.1875 10.3125 C-85.49833496 10.12204102 -84.80916992 9.93158203 -84.09912109 9.73535156 C-74.80117342 7.21673042 -65.39574867 5.62058737 -55.875 4.1875 C-54.82111084 4.02878418 -53.76722168 3.87006836 -52.68139648 3.70654297 C-35.09760797 1.18034267 -17.76164848 -0.06808874 0 0 Z " fill="#000000" transform="translate(313.1875,54.6875)"/>
<path d="M0 0 C16.891875 -0.04125 33.78375 -0.0825 51.1875 -0.125 C56.4780542 -0.14320801 61.7686084 -0.16141602 67.21948242 -0.18017578 C73.78967285 -0.18920898 73.78967285 -0.18920898 76.88667297 -0.19088745 C79.00325873 -0.1939148 81.11984154 -0.20085502 83.23640442 -0.21115112 C97.62108893 -0.27749382 111.70910974 0.3413738 126 2 C127.71989388 2.18657669 127.71989388 2.18657669 129.47453308 2.37692261 C150.4986807 4.84049795 170.62626087 16.18813656 183.6875 32.625 C201.44234769 57.34376321 203.78269381 89.13629187 200.1875 118.5625 C196.36518016 141.57550152 186.84165485 162.03710085 167.96875 176.2890625 C144.06194476 191.92507906 116.96395352 193.63317436 89.16015625 193.390625 C86.86031485 193.38472236 84.56046801 193.38065495 82.26062012 193.37841797 C73.86116323 193.35769551 65.4618224 193.30185263 57.0625 193.25 C28.8165625 193.12625 28.8165625 193.12625 0 193 C0 129.31 0 65.62 0 0 Z " fill="#A1C9F4" transform="translate(720,523)"/>
</svg>
